<svg style="display:none"><defs><svg id="op3-icons-button-circle-play-2" xmlns="http://www.w3.org/2000/svg" viewBox="0 0 32 32"><path fill="currentColor" d="M16 0C7.178 0 0 7.178 0 16s7.178 16 16 16 16-7.178 16-16S24.822 0 16 0zm-3.967 8c.176.006.35.059.504.156l11 7a1.001 1.001 0 010 1.688l-11 7a1.01 1.01 0 01-1.017.033A1.002 1.002 0 0111 23V9a1.002 1.002 0 011.033-1z"/></svg><svg id="op3-icons-link-71-1" xmlns="http://www.w3.org/2000/svg" viewBox="0 0 32 32"><path fill="currentColor" d="M7 9c-3.845 0-7 3.155-7 7s3.155 7 7 7h5c3.845 0 7-3.155 7-7v-1h-2v1c0 2.755-2.245 5-5 5H7c-2.755 0-5-2.245-5-5s2.245-5 5-5h5V9H7zm13 0c-3.845 0-7 3.155-7 7v1h2v-1c0-2.755 2.245-5 5-5h5c2.755 0 5 2.245 5 5s-2.245 5-5 5h-5v2h5c3.845 0 7-3.155 7-7s-3.155-7-7-7h-5z"/></svg><svg id="op3-icons-menu-34-2" xmlns="http://www.w3.org/2000/svg" viewBox="0 0 32 32"><path fill="currentColor" d="M2 6c-.6 0-1 .4-1 1s.4 1 1 1h28c.6 0 1-.4 1-1s-.4-1-1-1H2zm0 9c-.6 0-1 .4-1 1s.4 1 1 1h28c.6 0 1-.4 1-1s-.4-1-1-1H2zm0 9c-.6 0-1 .4-1 1s.4 1 1 1h28c.6 0 1-.4 1-1s-.4-1-1-1H2z"/></svg><svg id="op3-icons-shape-star-2-1" xmlns="http://www.w3.org/2000/svg" viewBox="0 0 32 32"><path fill="currentColor" d="M16.002-.03a1.97 1.97 0 00-1.691 1l-.018.03-3.959 8.37-8.813 1.335c-1.538.229-2.153 2.222-1.068 3.318l6.397 6.502-1.512 9.198v.002c-.12.752.206 1.476.75 1.886.543.41 1.364.521 2.04.15l7.87-4.314 7.87 4.315h.001c.677.37 1.496.26 2.04-.15a1.99 1.99 0 00.751-1.887v-.002l-1.514-9.192 6.4-6.51v-.001c1.08-1.099.469-3.082-1.067-3.315h-.002l-.079-.012-8.73-1.324L17.709 1l-.016-.03a1.97 1.97 0 00-1.691-1zm0 1.94l4.36 9.217 9.826 1.488c.015.003.023.007-.02.051l-7.088 7.211 1.672 10.156c0 .008-.002.004-.002.008l-8.752-4.799-8.75 4.799c0-.004-.003 0-.002-.008v-.004l1.67-10.16-7.088-7.205h-.002c-.043-.043-.036-.045-.021-.047h.004l9.834-1.49 4.359-9.217z"/></svg><svg id="op3-icons-simple-remove-2" xmlns="http://www.w3.org/2000/svg" viewBox="0 0 32 32"><path fill="currentColor" d="M5 4c-.25 0-.5.1-.7.3-.4.4-.4 1 0 1.4L14.6 16 4.3 26.301c-.4.4-.4.999 0 1.399.2.2.4.3.7.3s.5-.1.7-.3L16 17.4l10.301 10.3c.2.2.5.3.7.3s.499-.1.699-.3c.4-.4.4-.999 0-1.399l-10.3-10.3L27.7 5.698c.4-.4.4-.998 0-1.398-.4-.4-.999-.4-1.399 0l-10.3 10.3L5.698 4.3A.98.98 0 005 4z"/></svg><svg id="op3-icons-small-down" xmlns="http://www.w3.org/2000/svg" viewBox="0 0 32 32"><path fill="currentColor" d="M10 11.586L8.586 13 16 20.414 23.414 13 22 11.586l-6 6-6-6z"/></svg><svg id="op3-icons-small-right" xmlns="http://www.w3.org/2000/svg" viewBox="0 0 32 32"><path fill="currentColor" d="M13 8.586L11.586 10l6 6-6 6L13 23.414 20.414 16 13 8.586z"/></svg></defs></svg>